<?xml version="1.0" standalone="no"?>
<!DOCTYPE svg PUBLIC "-//W3C//DTD SVG 20010904//EN"
 "http://www.w3.org/TR/2001/REC-SVG-20010904/DTD/svg10.dtd">
<svg version="1.0" xmlns="http://www.w3.org/2000/svg"
 width="500.000000pt" height="500.000000pt" viewBox="0 0 500.000000 500.000000"
 preserveAspectRatio="xMidYMid meet">

<g transform="translate(0.000000,500.000000) scale(0.100000,-0.100000)"
fill="#000000" stroke="none">
<path d="M2249 3388 c-66 -38 -95 -122 -69 -195 6 -15 86 -103 178 -195 l167
-168 163 163 c90 89 170 175 178 190 33 62 11 156 -46 197 -75 53 -164 34
-250 -54 l-44 -46 -56 54 c-30 30 -68 60 -83 65 -44 17 -99 13 -138 -11z m323
-185 c3 -35 6 -38 33 -38 29 0 30 -2 30 -45 0 -43 -1 -45 -30 -45 -28 0 -30
-3 -33 -38 l-3 -38 -42 3 c-40 3 -42 5 -47 39 -4 31 -8 35 -35 35 -29 -1 -30
1 -30 44 0 45 0 45 33 42 30 -3 32 -2 32 31 0 43 5 47 51 47 36 0 38 -1 41
-37z"/>
<path d="M3103 2852 c-69 -100 -213 -233 -333 -306 -41 -25 -71 -46 -68 -46
27 0 191 61 273 101 133 65 174 101 185 160 9 45 0 114 -17 130 -4 4 -22 -13
-40 -39z"/>
<path d="M3330 2862 c-14 -20 -65 -79 -115 -131 -187 -194 -439 -318 -684
-336 -93 -7 -126 6 -126 50 0 28 3 29 65 41 172 32 270 105 270 203 0 17 -2
31 -3 31 -2 0 -29 -9 -61 -20 -116 -40 -199 -45 -388 -25 -260 27 -378 6 -511
-88 -98 -70 -177 -168 -245 -303 l-31 -61 67 -28 c295 -121 539 -177 772 -178
325 -1 560 107 814 374 161 169 231 300 224 421 -5 86 -16 98 -48 50z"/>
<path d="M2307 1903 c-4 -3 -7 -80 -7 -170 l0 -163 30 0 30 0 0 170 0 170 -23
0 c-13 0 -27 -3 -30 -7z"/>
<path d="M2510 1740 l0 -170 25 0 c24 0 25 2 25 63 0 74 18 109 47 91 14 -9
19 -26 21 -83 3 -68 4 -71 27 -71 24 0 25 2 25 80 0 67 -3 83 -20 100 -22 22
-51 26 -81 10 -18 -10 -19 -7 -19 70 0 79 0 80 -25 80 l-25 0 0 -170z"/>
<path d="M3210 1740 l0 -170 25 0 c14 0 25 5 25 12 0 9 3 9 12 0 7 -7 29 -12
49 -12 51 0 79 35 79 100 0 76 -61 122 -121 90 -18 -10 -19 -7 -19 70 0 79 0
80 -25 80 l-25 0 0 -170z m128 -32 c28 -28 4 -98 -33 -98 -22 0 -45 30 -45 59
0 32 16 51 45 51 12 0 26 -5 33 -12z"/>
<path d="M1610 1720 l0 -150 30 0 30 0 0 70 0 70 55 0 55 0 0 -70 c0 -68 1
-70 25 -70 l25 0 0 150 0 150 -25 0 c-24 0 -25 -3 -25 -60 l0 -60 -55 0 -55 0
0 60 0 60 -30 0 -30 0 0 -150z"/>
<path d="M2730 1720 l0 -150 25 0 c24 0 25 2 25 70 l0 70 55 0 55 0 0 -70 0
-70 30 0 30 0 0 150 0 150 -30 0 -30 0 0 -60 0 -60 -55 0 -55 0 0 60 c0 57 -1
60 -25 60 l-25 0 0 -150z"/>
<path d="M2410 1801 c0 -17 -4 -33 -10 -36 -5 -3 -10 -15 -10 -26 0 -10 5 -19
10 -19 6 0 10 -32 10 -75 0 -73 1 -75 25 -75 24 0 25 2 25 75 0 60 3 75 15 75
8 0 15 9 15 20 0 11 -7 20 -15 20 -10 0 -15 11 -15 35 0 31 -3 35 -25 35 -21
0 -25 -5 -25 -29z"/>
<path d="M1915 1758 c-34 -19 -44 -41 -45 -91 0 -62 31 -97 87 -97 42 0 83 23
83 46 0 18 -25 18 -53 -1 -20 -13 -25 -13 -45 1 -42 29 -28 44 44 44 l67 0 -7
33 c-12 61 -79 95 -131 65z m75 -32 c0 -2 3 -11 6 -20 5 -13 -2 -16 -35 -16
-42 0 -50 7 -29 28 11 11 58 17 58 8z"/>
<path d="M2097 1744 c-37 -37 -39 -113 -2 -149 26 -27 82 -34 103 -13 9 9 12
9 12 0 0 -7 11 -12 25 -12 25 0 25 0 25 95 l0 96 -32 -1 c-18 0 -49 2 -68 6
-30 5 -40 1 -63 -22z m109 -52 c16 -31 7 -61 -22 -74 -19 -9 -28 -8 -44 7 -22
20 -26 65 -8 83 19 19 61 10 74 -16z"/>
<path d="M2992 1686 c4 -94 21 -116 88 -116 65 0 77 17 82 113 l3 77 -27 0
c-27 0 -27 -1 -30 -72 -3 -70 -4 -73 -27 -73 -20 0 -27 7 -34 34 -4 19 -6 52
-4 73 4 37 3 38 -25 38 l-30 0 4 -74z"/>
<path d="M2928 1480 c-1 -28 0 -50 5 -50 4 0 7 23 7 50 0 65 -7 65 -12 0z"/>
<path d="M1545 1510 c3 -5 8 -10 11 -10 2 0 4 5 4 10 0 6 -5 10 -11 10 -5 0
-7 -4 -4 -10z"/>
<path d="M1725 1475 c0 -25 3 -45 8 -45 4 0 7 20 7 45 0 25 -3 45 -7 45 -5 0
-8 -20 -8 -45z"/>
<path d="M1164 1470 c-1 -22 2 -40 7 -40 5 0 9 18 9 40 0 52 -15 52 -16 0z"/>
<path d="M1230 1496 c0 -8 -10 -17 -22 -19 -23 -4 -23 -4 1 -6 18 -1 22 -5 18
-21 -3 -12 0 -20 7 -20 7 0 10 14 8 40 -4 38 -12 56 -12 26z"/>
<path d="M2499 1473 c-3 -29 -1 -43 7 -43 7 0 10 8 7 19 -3 13 1 21 14 24 15
4 15 5 1 6 -9 0 -18 9 -20 19 -3 9 -6 -2 -9 -25z"/>
<path d="M3400 1496 c0 -8 9 -20 21 -26 12 -7 18 -18 15 -26 -3 -9 -1 -12 4
-9 15 9 12 20 -15 49 -17 19 -25 22 -25 12z"/>
<path d="M1938 1494 c-15 -15 -8 -44 15 -55 19 -10 20 -10 10 2 -6 8 -13 25
-15 37 -1 13 -6 20 -10 16z"/>
<path d="M1548 1460 c-3 -16 -1 -30 4 -30 4 0 8 14 8 30 0 17 -2 30 -4 30 -2
0 -6 -13 -8 -30z"/>
<path d="M1630 1460 c0 -16 4 -30 8 -30 5 0 7 14 4 30 -2 17 -6 30 -8 30 -2 0
-4 -13 -4 -30z"/>
<path d="M3102 1463 c2 -14 10 -28 18 -30 12 -4 13 -3 1 5 -8 6 -12 19 -8 31
3 12 1 21 -5 21 -5 0 -8 -12 -6 -27z"/>
<path d="M3740 1460 c0 -16 4 -30 8 -30 5 0 7 14 4 30 -2 17 -6 30 -8 30 -2 0
-4 -13 -4 -30z"/>
<path d="M1318 1468 c-8 -20 2 -38 20 -38 16 1 16 1 0 11 -10 5 -15 16 -12 24
4 8 4 15 1 15 -3 0 -7 -6 -9 -12z"/>
<path d="M1462 1455 c0 -16 2 -22 5 -12 2 9 2 23 0 30 -3 6 -5 -1 -5 -18z"/>
<path d="M1765 1454 c0 -13 3 -24 8 -24 4 0 7 9 7 19 0 11 -3 22 -7 24 -5 3
-8 -6 -8 -19z"/>
<path d="M2112 1455 c0 -16 2 -22 5 -12 2 9 2 23 0 30 -3 6 -5 -1 -5 -18z"/>
<path d="M2195 1455 c0 -14 3 -25 8 -25 4 0 7 11 7 25 0 14 -3 25 -7 25 -5 0
-8 -11 -8 -25z"/>
<path d="M2293 1461 c1 -14 9 -26 17 -28 10 -3 11 -2 4 4 -7 4 -14 17 -17 28
-5 16 -5 15 -4 -4z"/>
<path d="M2642 1455 c0 -16 2 -22 5 -12 2 9 2 23 0 30 -3 6 -5 -1 -5 -18z"/>
<path d="M2726 1471 c-10 -15 5 -41 22 -41 13 0 13 2 -3 13 -10 8 -15 19 -11
25 4 7 5 12 2 12 -3 0 -7 -4 -10 -9z"/>
<path d="M2842 1455 c0 -16 2 -22 5 -12 2 9 2 23 0 30 -3 6 -5 -1 -5 -18z"/>
<path d="M3015 1455 c0 -14 3 -25 8 -25 4 0 7 11 7 25 0 14 -3 25 -7 25 -5 0
-8 -11 -8 -25z"/>
<path d="M3200 1474 c0 -6 7 -19 16 -30 14 -18 14 -18 3 6 -14 31 -19 36 -19
24z"/>
<path d="M3520 1474 c0 -5 7 -19 15 -30 8 -10 15 -14 15 -8 0 5 -7 19 -15 30
-8 10 -15 14 -15 8z"/>
<path d="M3636 1466 c3 -8 13 -17 22 -21 13 -5 13 -2 -3 15 -21 24 -26 25 -19
6z"/>
<path d="M3833 1461 c1 -14 9 -26 17 -28 10 -3 11 -2 4 4 -7 4 -14 17 -17 28
-5 16 -5 15 -4 -4z"/>
<path d="M3940 1455 c0 -14 3 -25 8 -25 4 0 7 11 7 25 0 14 -3 25 -7 25 -5 0
-8 -11 -8 -25z"/>
<path d="M3980 1455 c0 -14 4 -25 9 -25 4 0 6 11 3 25 -2 14 -6 25 -8 25 -2 0
-4 -11 -4 -25z"/>
<path d="M4020 1455 c0 -14 4 -25 9 -25 4 0 6 11 3 25 -2 14 -6 25 -8 25 -2 0
-4 -11 -4 -25z"/>
<path d="M2080 1440 c0 -5 5 -10 11 -10 5 0 7 5 4 10 -3 6 -8 10 -11 10 -2 0
-4 -4 -4 -10z"/>
<path d="M2610 1440 c0 -5 5 -10 11 -10 5 0 7 5 4 10 -3 6 -8 10 -11 10 -2 0
-4 -4 -4 -10z"/>
</g>
</svg>
